<svg id="Layer_1" data-name="Layer 1" xmlns="http://www.w3.org/2000/svg" viewBox="0 0 1039.97 1070.31"><path d="M910.86,131c42.68-1.37,78.95,11.88,108.59,41.78,23.22,23.44,36.07,51.89,39.16,84.71.51,5.43.87,10.9.87,16.35q0,100.9-.06,201.8,0,145.9.1,291.82c0,56.62.11,113.24,0,169.86-.16,65.12-48.32,123.1-112.24,135A152.19,152.19,0,0,1,920,1075c-54,.19-107.92,0-161.88,0q-143.93,0-287.84.16-116.19,0-232.38,0c-25.73,0-51.46-.37-77.17.06-64.27,1.06-121.08-43-136.47-104.25a136.39,136.39,0,0,1-4.46-32.78q-.41-250.82-.16-501.61,0-81.84,0-163.66c0-68.25,43.87-123.58,110.47-138.7,9.26-2.11,18.89-2.6,28.94-3.92.14,3.1.31,5.1.31,7.1,0,35-.06,70.07,0,105.11,0,20.79,7.31,38.65,22.42,53.13,25.92,24.83,67.44,25.89,94.57,2.42,17.16-14.86,25.17-33.85,25.2-56.35q.06-52.55,0-105.11v-5.2H768.69v5.38c0,35.77-.09,71.54,0,107.31.07,35.32,27.53,66.43,62,70.46,43.11,5,80.09-27.84,80.16-71.33q.07-53.22,0-106.44Zm-820,267.79v5q0,265.68,0,531.34c0,38.51,30.15,68.68,68.59,68.68q191.37,0,382.74,0,188.28,0,376.55-.06a71.27,71.27,0,0,0,15.38-1.42c32.34-7.16,54.12-34.52,54.13-67.7q0-192.93,0-385.85,0-72.52.09-145c0-3.91-1.05-5.48-5-5a31.23,31.23,0,0,1-4,0H90.87Z" transform="translate(-19.59 -4.84)"/><path d="M786.89,150.54c0-31.92-.28-63.84.08-95.76.3-26.3,23.53-49.16,49.89-49.91,28.84-.82,51,17.39,55.62,45.79a65,65,0,0,1,.38,10.17q0,90.89,0,181.78c0,32-24,55.37-55.86,54.45-26.49-.76-49.78-23.8-50.07-50.33-.36-32.06-.09-64.13-.09-96.19Z" transform="translate(-19.59 -4.84)"/><path d="M177.43,150.66q0-46.57,0-93.14a52.51,52.51,0,0,1,60.67-52c26.78,4,45.33,25.71,45.31,52.8q-.09,92.7,0,185.39c0,24.15-15.24,44.68-38.06,51.36a53,53,0,0,1-60.07-23,49,49,0,0,1-7.84-26.4Q177.43,198.12,177.43,150.66Z" transform="translate(-19.59 -4.84)"/><path d="M649.75,665.05h103c.15,1.64.42,3.19.42,4.73,0,31,0,62.07.1,93.1,0,4.16-1,5.51-5.4,5.48-31-.19-62.07-.1-93.1-.1h-5Z" transform="translate(-19.59 -4.84)"/><path d="M649.68,932.92V830.27H752.79V932.92Z" transform="translate(-19.59 -4.84)"/><path d="M484.81,933V830.25h103V933Z" transform="translate(-19.59 -4.84)"/><path d="M810.65,664.9h4.77q47,0,94,0c2.94,0,4.59.3,4.58,4-.13,32.08-.08,64.17-.09,96.25,0,.86-.14,1.73-.24,2.9H810.65Z" transform="translate(-19.59 -4.84)"/><path d="M587.74,768.05H484.82V665.29H587.74Z" transform="translate(-19.59 -4.84)"/><path d="M911.55,500.22V603H808.49V500.22Z" transform="translate(-19.59 -4.84)"/><path d="M268.07,768.11H165.31V665.17H268.07Z" transform="translate(-19.59 -4.84)"/><path d="M165.4,830.1H268.16v103H165.4Z" transform="translate(-19.59 -4.84)"/><path d="M431.29,830.28V933H328.39V830.28Z" transform="translate(-19.59 -4.84)"/><path d="M647.8,500.07H750.48V603H647.8Z" transform="translate(-19.59 -4.84)"/><path d="M585.64,500.18V603H482.94V500.18Z" transform="translate(-19.59 -4.84)"/><path d="M328.26,767.92V665.27H431.18V767.92Z" transform="translate(-19.59 -4.84)"/></svg>