<svg id="Layer_1" data-name="Layer 1" xmlns="http://www.w3.org/2000/svg" viewBox="0 0 1054.35 848.06"><path d="M957.31,535.26H619.79L544,372.9C517.84,428.74,493.42,481,467.67,536.06H275.26C322,582.43,364.38,624.5,406.89,666.69c-46,98.52-90.92,194.7-135.83,290.87l-3.29-.53V684.16L12.82,428.64h384.5L543.39,116l146.3,311.61h377.49Z" transform="translate(-12.82 -115.97)"/><path d="M463.2,964H343.4c47.88-102.58,94.72-202.93,144.07-308.64L431,609.86l4.62-6.7h73.1l35.6-74.53L580,602.34H895.42L786,710.15H581.82Z" transform="translate(-12.82 -115.97)"/></svg>